Coordinates
version=1
nRows=4
nColumns=107
inDegrees=yes

Units are S.I. units (second, meters, Newtons, ...)
If the header above contains a line with 'inDegrees', this indicates whether rotational values are in degrees (yes) or radians (no).

endheader
time	sternoclavicular_r2	sternoclavicular_r3	unrotscap_r3	unrotscap_r2	acromioclavicular_r2	acromioclavicular_r3	acromioclavicular_r1	unrothum_r1	unrothum_r3	unrothum_r2	elv_angle	shoulder_elv	shoulder1_r2	shoulder_rot	elbow_flexion	pro_sup	deviation	flexion	proximal_distal_r1	proximal_distal_r3	cmc_flexion	cmc_abduction	mp_flexion	ip_flexion	mcp2_flexion	mcp2_abduction	pm2_flexion	md2_flexion	mcp3_flexion	mcp3_abduction	pm3_flexion	md3_flexion	mcp4_flexion	mcp4_abduction	pm4_flexion	md4_flexion	mcp5_flexion	mcp5_abduction	pm5_flexion	md5_flexion	bicpt_tx	bicpt_ty	bicpt_tz	bicpt2_tx	bicpt2_ty	bicpt2_tz	ptpt_tx	ptpt_ty	ptpt_tz	FCUpt_tx	FCUpt_ty	FCUpt_tz	EDCpt_tx	EDCpt_ty	EDCpt_tz	APLpt_tx	APLpt_ty	APLpt_tz	FPLpt_tx	FPLpt_ty	FPLpt_tz	FPLpt2_tx	FPLpt2_ty	FPLpt2_tz	PEC1pt2_tx	PEC1pt2_ty	PEC1pt2_tz	PEC1pt3_tx	PEC1pt3_ty	PEC1pt3_tz	PEC2pt2_tx	PEC2pt2_ty	PEC2pt2_tz	PEC2pt3_tx	PEC2pt3_ty	PEC2pt3_tz	PEC3pt2_tx	PEC3pt2_ty	PEC3pt2_tz	PEC3pt3_tx	PEC3pt3_ty	PEC3pt3_tz	DELT2pt2a_tx	DELT2pt2a_ty	DELT2pt2a_tz	DELT2pt2_tx	DELT2pt2_ty	DELT2pt2_tz	LAT1pt2_tx	LAT1pt2_ty	LAT1pt2_tz	LAT1pt3_tx	LAT1pt3_ty	LAT1pt3_tz	LAT2pt2_tx	LAT2pt2_ty	LAT2pt2_tz	LAT2pt3_tx	LAT2pt3_ty	LAT2pt3_tz	LAT3pt2_tx	LAT3pt2_ty	LAT3pt2_tz	LAT3pt3_tx	LAT3pt3_ty	LAT3pt3_tz
      0.46666667	     -0.32294591	      0.13678464	     -0.13678464	      0.32294591	     -0.06538998	      0.52845879	      0.23753859	     -0.23753859	     -0.52845879	      0.06538998	     99.37314527	     76.46031369	     -1.73438857	    -22.81754601	     27.63578585	     22.09425673	      0.06353583	     -0.79282579	      0.08292292	     -0.39641289	     -6.42677589	      4.48274904	    -29.60663278	    -34.90396792	      2.03326043	     12.13545287	     13.31013709	    -30.94850118	     57.24000145	      4.71611337	     82.90416799	     56.91344169	     48.25787179	     -6.33172850	     87.68003474	     39.28306836	     17.20578508	     -1.68874508	    -20.04643185	      4.89949719	      0.00081411	     -0.03076748	     -0.00481020	      0.01617427	     -0.01770740	     -0.00915676	      0.00591748	     -0.06595561	     -0.00182981	      0.00602698	     -0.18382203	     -0.00013860	     -0.00265130	      0.00070133	      0.00018810	      0.00028478	      0.00011391	      0.00056956	      0.00036452	      0.00109356	      0.00061513	     -0.00056722	      0.00018361	      0.00022033	      0.00250620	      0.00879294	      0.00611683	     -0.00819825	      0.01979474	     -0.01877527	      0.00250620	      0.00879294	      0.00611683	      0.00055221	      0.01835049	     -0.00964250	      0.00395903	      0.00488964	      0.01599469	      0.00000000	      0.00781889	      0.00000000	     -0.00717878	     -0.03317531	     -0.00644725	      0.01534904	     -0.00052001	     -0.00433762	     -0.00089204	      0.01495225	     -0.00611683	      0.00246372	      0.02157882	     -0.01784075	     -0.00598940	      0.01295579	     -0.00547966	     -0.01248853	      0.02735582	     -0.03062663	     -0.02344785	      0.01448499	     -0.00734869	     -0.01554694	      0.03160362	     -0.03827267
      0.50000000	     -0.32297013	      0.13679490	     -0.13679490	      0.32297013	     -0.06539488	      0.52849843	      0.23755641	     -0.23755641	     -0.52849843	      0.06539488	     99.35795424	     76.46604979	     -1.73412344	    -22.82373133	     27.62639191	     22.09375875	      0.06356294	     -0.79284559	      0.08295688	     -0.39642280	     -6.42683267	      4.48278744	    -29.60681961	    -34.90403522	      2.03384161	     12.13506267	     13.30989170	    -30.94845516	     57.23933400	      4.71592510	     82.90436179	     56.91351895	     48.25665611	     -6.33162146	     87.67999933	     39.28307925	     17.20344662	     -1.68946146	    -20.04747585	      4.89938950	      0.00081380	     -0.03076641	     -0.00481003	      0.01617419	     -0.01770484	     -0.00915677	      0.00591752	     -0.06595559	     -0.00182977	      0.00602694	     -0.18382203	     -0.00013857	     -0.00265124	      0.00070132	      0.00018808	      0.00028477	      0.00011391	      0.00056953	      0.00036450	      0.00109350	      0.00061509	     -0.00056741	      0.00018362	      0.00022034	      0.00250639	      0.00879360	      0.00611729	     -0.00819887	      0.01979623	     -0.01877668	      0.00250639	      0.00879360	      0.00611729	      0.00055226	      0.01835187	     -0.00964323	      0.00395925	      0.00489001	      0.01599521	      0.00000000	      0.00782007	      0.00000000	     -0.00717932	     -0.03317780	     -0.00644823	      0.01535237	     -0.00052021	     -0.00434003	     -0.00089210	      0.01495337	     -0.00611729	      0.00246391	      0.02158044	     -0.01784209	     -0.00598985	      0.01295676	     -0.00548007	     -0.01248947	      0.02735788	     -0.03062893	     -0.02344961	      0.01448608	     -0.00734924	     -0.01554811	      0.03160599	     -0.03827554
      0.53333333	     -0.32213142	      0.13643967	     -0.13643967	      0.32213142	     -0.06522506	      0.52712599	      0.23693951	     -0.23693951	     -0.52712599	      0.06522506	     99.59048539	     76.26747710	     -1.73818187	    -23.70796128	     27.53886023	     22.49901505	      0.05821069	     -0.81170411	      0.07622712	     -0.40585206	     -6.43580008	      4.67088262	    -30.16983322	    -34.78351260	      3.30797443	     12.00936854	     11.67462873	    -30.30474413	     57.31952117	      4.23860281	     83.18136510	     56.66223480	     47.47742981	     -6.73664133	     87.48998297	     39.01923249	     16.91001829	     -1.94869009	    -19.84175441	      4.88299137	      0.00081090	     -0.03075637	     -0.00480841	      0.01619136	     -0.01768107	     -0.00912357	      0.00588758	     -0.06597495	     -0.00186242	      0.00606553	     -0.18381564	     -0.00014685	     -0.00269988	      0.00071559	      0.00018906	      0.00027872	      0.00011149	      0.00055744	      0.00035676	      0.00107029	      0.00060204	     -0.00056876	      0.00018390	      0.00022068	      0.00249988	      0.00877077	      0.00610140	     -0.00817758	      0.01974482	     -0.01872792	      0.00249988	      0.00877077	      0.00610140	      0.00055082	      0.01830421	     -0.00961818	      0.00395174	      0.00487731	      0.01597693	      0.00000000	      0.00777922	      0.00000000	     -0.00716067	     -0.03309164	     -0.00641432	      0.01582412	     -0.00054846	     -0.00469075	     -0.00088979	      0.01491454	     -0.00610140	      0.00245751	      0.02152440	     -0.01779576	     -0.00597429	      0.01292311	     -0.00546584	     -0.01245703	      0.02728683	     -0.03054939	     -0.02338871	      0.01444846	     -0.00733016	     -0.01550773	      0.03152392	     -0.03817614
      0.56666667	     -0.32215019	      0.13644761	     -0.13644761	      0.32215019	     -0.06522886	      0.52715670	      0.23695331	     -0.23695331	     -0.52715670	      0.06522886	     99.57897297	     76.27192044	     -1.73798094	    -23.71273831	     27.53449158	     22.49824018	      0.05822576	     -0.81171381	      0.07624562	     -0.40585690	     -6.43616345	      4.67128521	    -30.16986446	    -34.78347994	      3.30811373	     12.00885329	     11.67475837	    -30.30464704	     57.31906305	      4.23874599	     83.18141724	     56.66232219	     47.48006096	     -6.73627115	     87.49130496	     39.01931221	     16.90790071	     -1.94923533	    -19.84271060	      4.88291642	      0.00081076	     -0.03075587	     -0.00480833	      0.01619133	     -0.01767988	     -0.00912363	      0.00588763	     -0.06597491	     -0.00186235	      0.00606545	     -0.18381565	     -0.00014684	     -0.00269978	      0.00071556	      0.00018906	      0.00027872	      0.00011149	      0.00055743	      0.00035676	      0.00107027	      0.00060203	     -0.00056892	      0.00018392	      0.00022070	      0.00250003	      0.00877128	      0.00610176	     -0.00817805	      0.01974597	     -0.01872901	      0.00250003	      0.00877128	      0.00610176	      0.00055085	      0.01830528	     -0.00961874	      0.00395191	      0.00487760	      0.01597734	      0.00000000	      0.00778013	      0.00000000	     -0.00716109	     -0.03309357	     -0.00641508	      0.01582652	     -0.00054861	     -0.00469281	     -0.00088984	      0.01491541	     -0.00610176	      0.00245765	      0.02152565	     -0.01779680	     -0.00597464	      0.01292386	     -0.00546616	     -0.01245776	      0.02728842	     -0.03055117	     -0.02339008	      0.01444930	     -0.00733059	     -0.01550864	      0.03152575	     -0.03817837
